<svg height="512" viewBox="0 0 60 59" width="512" xmlns="http://www.w3.org/2000/svg"><g id="Page-1" fill="none" fill-rule="evenodd"><g id="012---Time-Schedule" fill-rule="nonzero"><path id="Shape" d="m37.94 24.07c3.4716059.4642596 6.062829 3.42749 6.06 6.93l.0000023 4h-28.0000046l.0000023-4c-.002829-3.50251 2.5883941-6.4657404 6.06-6.93z" fill="#955ba5"/><path id="Shape" d="m20 18c-.00393.4789228.0328692.9573126.11 1.43-3.5042172 3.8306714-9.2096764 4.6897373-13.68651609 2.0607664-4.47683974-2.6289709-6.50605491-8.0301323-4.8677741-12.95655268 1.63828082-4.9264204 6.49796776-8.03667773 11.65763919-7.46102743 5.1596713.57565031 9.2143928 4.68046359 9.726651 9.84681371-1.8854598 1.8731572-2.9439794 4.4222452-2.94 7.08z" fill="#f0c419"/><path id="Shape" d="m59 12c0 .34-.02.67-.05 1-.1049025 1.2504793-.4298969 2.4725934-.96 3.61-.279605.6081402-.6178739 1.1875513-1.01 1.73-.7127265 1.0327279-1.6072721 1.9272735-2.64 2.64-.5424487.3921261-1.1218598.730395-1.73 1.01-1.1374066.5301031-2.3595207.8550975-3.61.96-.33.03-.66.05-1 .05-.3340373.0035479-.6679826-.0131493-1-.05-1.2504793-.1049025-2.4725934-.4298969-3.61-.96-.6081402-.279605-1.1875513-.6178739-1.73-1.01-.6463823-.448498-1.2401329-.9684492-1.77-1.55.0771308-.4726874.11393-.9510772.11-1.43.0039794-2.6577548-1.0545402-5.2068428-2.94-7.08.1171719-1.2214881.4382889-2.41469101.95-3.53.281575-.60824823.6162026-1.19050026 1-1.74.7263118-1.02132554 1.6186745-1.9136882 2.64-2.64.5485114-.38535182 1.1309062-.72006148 1.74-1 1.1374066-.53010314 2.3595207-.85509745 3.61-.96.33-.03.66-.05 1-.05s.67.02 1 .05c1.2504793.10490255 2.4725934.42989686 3.61.96.6081402.27960498 1.1875513.61787389 1.73 1.01 1.0327279.71272653 1.9272735 1.60727211 2.64 2.64.3921261.54244869.730395 1.12185979 1.01 1.73.5301031 1.13740662.8550975 2.35952065.96 3.61.03.33.05.66.05 1z" fill="#84b5cb"/><path id="Shape" d="m56.42 4.92c-4.6846452-2.06207706-10.1725548-.62049615-13.2390101 3.47766374-3.0664553 4.09815986-2.9010554 9.76983956.3990101 13.68233626-4.148826-1.8262213-6.752554-6.010468-6.5582667-10.5392751.1942873-4.52880715 3.1468005-8.47468931 7.4367864-9.93888281 4.2899859-1.4641935 9.0388689-.14683617 11.9614803 3.31815791z" fill="#9fc9d3"/><path id="Shape" d="m20.42 4.92c-4.6846452-2.06207706-10.1725548-.62049615-13.23901014 3.47766374-3.06645531 4.09815986-2.90105536 9.76983956.39901014 13.68233626-4.14882599-1.8262213-6.75255401-6.010468-6.55826669-10.5392751.19428731-4.52880715 3.14680054-8.47468931 7.4367864-9.93888281 4.28998589-1.4641935 9.03886889-.14683617 11.96148029 3.31815791z" fill="#f3d55b"/><path id="Shape" d="m51 16c-.2651948-.0000566-.5195073-.1054506-.707-.293l-3-3c-.1875494-.1874927-.2929434-.4418052-.293-.707v-5c0-.55228475.4477153-1 1-1s1 .44771525 1 1v4.586l2.707 2.707c.2859079.2859943.3714219.7160366.216678 1.0896546-.1547439.3736179-.5192821.6172591-.923678.6173454z" fill="#ff5364"/><g fill="#285680"><path id="Shape" d="m49 1.05v1.95c0 .55228475-.4477153 1-1 1s-1-.44771525-1-1v-1.95c.33-.03.66-.05 1-.05s.67.02 1 .05z"/><path id="Shape" d="m49 21v1.95c-.33.03-.66.05-1 .05-.3340373.0035479-.6679826-.0131493-1-.05v-1.95c0-.5522847.4477153-1 1-1s1 .4477153 1 1z"/><path id="Shape" d="m59 12c0 .34-.02.67-.05 1h-1.95c-.5522847 0-1-.4477153-1-1s.4477153-1 1-1h1.95c.03.33.05.66.05 1z"/><path id="Shape" d="m44 5.07c-.2288501.13629645-.5028629.17493768-.7604798.10724272-.257617-.06769496-.4772366-.23604984-.6095202-.46724272l-.98-1.7c.5485114-.38535182 1.1309062-.72006148 1.74-1l.98 1.7c.2713883.47797918.1061364 1.08539152-.37 1.36z"/><path id="Shape" d="m54.34 20.98c-.5424487.3921261-1.1218598.730395-1.73 1.01l-.98-1.7c-.2761424-.4804877-.1104877-1.0938576.37-1.37s1.0938576-.1104877 1.37.37z"/><path id="Shape" d="m54.34 3.02-.97 1.69c-.1322836.23119288-.3519032.39954776-.6095202.46724272-.2576169.06769496-.5316297.02905373-.7604798-.10724272-.4761364-.27460848-.6413883-.88202082-.37-1.36l.98-1.7c.6081402.27960498 1.1875513.61787389 1.73 1.01z"/><path id="Shape" d="m44.37 20.29-.98 1.7c-.6081402-.279605-1.1875513-.6178739-1.73-1.01l.97-1.69c.2761424-.4804877.8895123-.6461424 1.37-.37s.6461424.8895123.37 1.37z"/><path id="Shape" d="m57.99 16.61c-.279605.6081402-.6178739 1.1875513-1.01 1.73l-1.69-.97c-.3108211-.1786328-.5027321-.5095174-.5034421-.8680127s.1898889-.6901375.5-.87.692621-.1806201 1.0034421-.0019873z"/><path id="Shape" d="m41.07 8c-.179341.31063419-.5113152.50142401-.87.5-.171951.00072534-.3410231-.04413053-.49-.13l-1.7-.98c.281575-.60824823.6162026-1.19050026 1-1.74l1.7.98c.4751892.28082589.6357495.89184717.36 1.37z"/><path id="Shape" d="m57.99 7.39-1.7.98c-.1489769.08586947-.318049.13072534-.49.13-.3586848.00142401-.690659-.18936581-.87-.5-.2757495-.47815283-.1151892-1.08917411.36-1.37l1.69-.97c.3921261.54244869.730395 1.12185979 1.01 1.73z"/></g><path id="Shape" d="m48 24c-.3744753.0036754-.7488289-.0153595-1.121-.057-1.3554999-.1149643-2.6801118-.4680362-3.913-1.043-.664626-.3062342-1.2979333-.6763054-1.891-1.105-1.610344-1.1342762-2.9192726-2.6447104-3.813-4.4-.1763038-.3173977-.166721-.7054196.0250356-1.0137274.1917565-.3083079.5355567-.4884584.898196-.4706527s.6871375.2307699.8477684.5563801c.7489976 1.4758204 1.847581 2.7460575 3.2 3.7.4950376.3586083 1.023875.6680736 1.579.924 1.0328549.4812567 2.1425408.7764507 3.278.872.6062329.0655555 1.2177671.0655555 1.824 0 1.1347592-.0945486 2.2438469-.3890865 3.276-.87.5514708-.2527209 1.0766784-.5592037 1.568-.915.9402419-.6462535 1.7537465-1.4597581 2.4-2.4.3590803-.4952678.6688869-1.0244508.925-1.58.4813753-1.0328119.776575-2.1425192.872-3.278.027-.3.046-.605.046-.914s-.019-.61-.046-.91c-.0945486-1.1347592-.3890865-2.24384686-.87-3.276-.2527843-.55143788-.5592635-1.07663942-.915-1.568-1.0168234-1.4334257-2.3867646-2.57980846-3.977-3.328-1.0328549-.48125668-2.1425408-.77645072-3.278-.872-.6067556-.05501296-1.2172444-.05501296-1.824 0-1.1347592.09454861-2.2438469.38908654-3.276.87-.5564577.25473667-1.0883561.56001758-1.589.912-.9287773.65992902-1.740071 1.47122268-2.4 2.4-.3484625.49951124-.6519825 1.02891441-.907 1.582-.9788556 2.14072141-1.1759604 4.5569354-.557 6.828.1046978.3498761.0103378.729002-.2461466.988984-.2564843.2599821-.6342975.3594683-.9855595.2595188s-.6201022-.3834371-.7012939-.7395028c-.742228-2.721012-.5047281-5.61631663.671-8.18.3074414-.66400015.6725057-1.29976758 1.091-1.9 1.2143132-1.72418922 2.86449-3.09519564 4.782-3.973 1.2416462-.57850318 2.5758995-.93263386 3.941-1.046.723877-.06500182 1.452123-.06500182 2.176 0 1.3660756.11328794 2.7013275.46741409 3.944 1.046 1.9068626.89704309 3.5488539 2.27271898 4.766 3.993.4272522.58919437.7956827 1.2188756 1.1 1.88.5788484 1.24158189.9333184 2.57583789 1.047 3.941.033.356.054.715.054 1.086s-.021.73-.054 1.09c-.1145499 1.3663221-.4700331 2.7015846-1.05 3.944-.3062342.664626-.6763054 1.2979333-1.105 1.891-.7780245 1.1264752-1.7558301 2.1008915-2.885 2.875-.5893939.4269465-1.2190443.795359-1.88 1.1-1.2415386.5789678-2.5758162.9334434-3.941 1.047-.356.032-.715.053-1.086.053z" fill="#3b97d3"/><path id="Shape" d="m12 24c.3744753.0036754.7488289-.0153595 1.121-.057 1.3554999-.1149643 2.6801118-.4680362 3.913-1.043.664626-.3062342 1.2979333-.6763054 1.891-1.105 1.610344-1.1342762 2.9192726-2.6447104 3.813-4.4.1763038-.3173977.166721-.7054196-.0250356-1.0137274-.1917565-.3083079-.5355567-.4884584-.898196-.4706527s-.6871375.2307699-.8477684.5563801c-.7489976 1.4758204-1.847581 2.7460575-3.2 3.7-.4950376.3586083-1.023875.6680736-1.579.924-1.0328549.4812567-2.1425408.7764507-3.278.872-.6062329.0655555-1.2177671.0655555-1.824 0-1.1347592-.0945486-2.24384686-.3890865-3.276-.87-.55147082-.2527209-1.07667844-.5592037-1.568-.915-.94024192-.6462535-1.75374648-1.4597581-2.4-2.4-.35908034-.4952678-.66888686-1.0244508-.925-1.58-.48137527-1.0328119-.77657501-2.1425192-.872-3.278-.026-.31-.045-.611-.045-.92s.019-.61.046-.91c.09454861-1.1347592.38908654-2.24384686.87-3.276.25278433-.55143788.55926354-1.07663942.915-1.568.64625352-.94024192 1.45975808-1.75374648 2.4-2.4.49526777-.35908034 1.0244508-.66888686 1.58-.925 1.03285494-.48125668 2.14254077-.77645072 3.278-.872.6067556-.05501296 1.2172444-.05501296 1.824 0 1.1347592.09454861 2.2438469.38908654 3.276.87.5564577.25473667 1.0883561.56001758 1.589.912.9287773.65992902 1.740071 1.47122268 2.4 2.4.3484625.49951124.6519825 1.02891441.907 1.582.9788556 2.14072141 1.1759604 4.5569354.557 6.828-.1199028.5258332.1987815 1.0520179.7203332 1.1893535.5215517.1373357 1.0580504-.1636611 1.2126668-.6803535.7402487-2.7205427.5013425-5.6146692-.675-8.177-.3074414-.66400015-.6725057-1.29976758-1.091-1.9-1.2143132-1.72418922-2.86449-3.09519564-4.782-3.973-1.2416462-.57850318-2.5758995-.93263386-3.941-1.046-.723877-.06500182-1.452123-.06500182-2.176 0-1.36607556.11328794-2.7013275.46741409-3.944 1.046-.6647861.30750603-1.29809888.67892003-1.891 1.109-1.12638581.7777279-2.10079646 1.75518888-2.875 2.884-.42725223.58919437-.79568273 1.2188756-1.1 1.88-.57850318 1.24164617-.93263386 2.57589954-1.046 3.941-.033.356-.054.715-.054 1.086s.021.73.054 1.09c.11328794 1.3660756.46741409 2.7013275 1.046 3.944.30623422.664626.67630536 1.2979333 1.105 1.891.77891439 1.1267434 1.75775394 2.1011769 2.888 2.875.58939389.4269465 1.21904433.795359 1.88 1.1 1.24153861.5789678 2.57581625.9334434 3.941 1.047.356.032.715.053 1.086.053z" fill="#f29c1f"/><path id="Shape" d="m49 37v19h-38v-19c0-1.6568542 1.3431458-3 3-3h32c1.6568542 0 3 1.3431458 3 3z" fill="#3b97d3"/><path id="Shape" d="m49 54v3c-.0032948 1.1032019-.8967981 1.9967052-2 2h-34c-1.1032019-.0032948-1.9967052-.8967981-2-2v-3z" fill="#2980ba"/><circle id="Oval" cx="30" cy="45" fill="#fff" r="4"/><path id="Shape" d="m40 18c.00393.4789228-.0328692.9573126-.11 1.43-.234162 1.6902753-.9064146 3.2898918-1.95 4.64-1.8889513 2.4765481-4.8252885 3.9298795-7.94 3.9298795s-6.0510487-1.4533314-7.94-3.9298795c-1.0435854-1.3501082-1.715838-2.9497247-1.95-4.64-.0771308-.4726874-.11393-.9510772-.11-1.43 0-5.5228475 4.4771525-10 10-10s10 4.4771525 10 10z" fill="#fdd7ad"/><path id="Shape" d="m23 31v3h-2v-3c0-.5522847.4477153-1 1-1s1 .4477153 1 1z" fill="#894b9d"/><path id="Shape" d="m39 31v3h-2v-3c0-.5522847.4477153-1 1-1s1 .4477153 1 1z" fill="#894b9d"/><path id="Shape" d="m30 42c-.5522847 0-1-.4477153-1-1 .1016707-1.6581393 1.0722038-3.1390389 2.552-3.894.4924675-.2437696 1.089365-.0445119 1.3366453.4462022.2472804.4907142.0522904 1.0890194-.4366453 1.3397978-.8046792.4172081-1.3490113 1.2074643-1.452 2.108 0 .5522847-.4477153 1-1 1z" fill="#fff"/><path id="Shape" d="m13 11.081v-3.954c1.15.283 2 1.022 2 1.873 0 .55228475.4477153 1 1 1s1-.44771525 1-1c0-1.932-1.721-3.547-4-3.919v-.081c0-.55228475-.4477153-1-1-1s-1 .44771525-1 1v.081c-2.279.372-4 1.987-4 3.919s1.721 3.547 4 3.919v3.954c-1.15-.283-2-1.022-2-1.873 0-.5522847-.44771525-1-1-1s-1 .4477153-1 1c0 1.932 1.721 3.547 4 3.919v.081c0 .5522847.4477153 1 1 1s1-.4477153 1-1v-.081c2.279-.372 4-1.987 4-3.919s-1.721-3.547-4-3.919zm-4-2.081c0-.851.85-1.59 2-1.873v3.746c-1.15-.283-2-1.022-2-1.873zm4 7.873v-3.746c1.15.283 2 1.022 2 1.873s-.85 1.59-2 1.873z" fill="#fff"/></g></g></svg>